<svg xmlns="http://www.w3.org/2000/svg" viewBox="0 0 854.16 257.53"><defs><style>.cls-1{fill:#fff;opacity:0;}.cls-2{fill:#f2f2f2;}.cls-3{fill:#ea9d39;}</style></defs><title>Asset 14</title><g id="Layer_2" data-name="Layer 2"><g id="Layer_1-2" data-name="Layer 1"><rect class="cls-1" width="854.16" height="257.53"/><polygon class="cls-2" points="557.56 116.03 557.56 185.19 584.93 185.19 584.93 101.1 562.98 101.1 557.56 116.03"/><path class="cls-2" d="M148.14,157.71a41.44,41.44,0,0,0,12.73,18.59,48,48,0,0,1-26.34,8.2c-8,0-29.28-1.61-40.25-17.71a6.18,6.18,0,0,1-1-1.91c-3.51-5.27-5.56-12-6-20.49a.43.43,0,0,1,0-.58,13.88,13.88,0,0,1-.15-2.49c0-8.78,1.91-16,5.13-21.81a12.5,12.5,0,0,1,1.17-1.9C102,103.26,118.72,97.7,133.94,97.7c10.1,0,19.47,2.78,26.93,8.2a40.68,40.68,0,0,0-12.44,17.85,20.82,20.82,0,0,0-12.58-4c-11.57,0-19.62,7.61-20.5,19a8.21,8.21,0,0,0-.29,2.64v.14a10.91,10.91,0,0,0,.15,2.2c0,.44.14.87.14,1.17,1.47,8.34,7.91,16.24,20.35,16.24A23.19,23.19,0,0,0,148.14,157.71Z"/><path class="cls-2" d="M197.06,97.74c-10.68,0-21.51,2.49-30.3,8.19a5.49,5.49,0,0,0-1.46,1,5.74,5.74,0,0,0-1.46,1.17,35.32,35.32,0,0,0-11.27,15.22,20,20,0,0,0-1.32,4.25,8.38,8.38,0,0,0-.73,2.78,51.57,51.57,0,0,0-1.17,11,42.05,42.05,0,0,0,1,9.8,9,9,0,0,0,.29,2.05,8.78,8.78,0,0,0,.59,2A36.83,36.83,0,0,0,164,174.43c.44.3,1,.74,1.47,1a5.52,5.52,0,0,0,1.61,1.17c8.93,5.85,19.76,8.2,30,8.2,18.88,0,37.76-8.49,44.79-27.08a58.9,58.9,0,0,1-2.19-16.54,50.93,50.93,0,0,1,2.34-16.1C235,105.2,214.77,97.74,197.06,97.74Zm0,64.25c-13,0-19.76-10.39-19.76-20.63s6.74-20.79,19.76-20.79,19.76,10.54,19.76,20.79C216.82,153.36,208.48,162,197.06,162Z"/><path class="cls-2" d="M559.17,101.1l.59-1.46h-30l-7.61,22.54-8,30.44-16.83-53H480.43l-16.69,53-8.34-30.44-7.76-22.54H417.78l2.49,7a.14.14,0,0,1,.15.14,35.26,35.26,0,0,1,3.36,3.52c6.45,8,9.52,18.29,8.79,30.15l15.51,44.8H475.6l13.17-38.36,13.47,38.36h27.07l24.6-69.54,1.75-4.83,1.9-5.27Z"/><path class="cls-2" d="M338.16,121.6V63.49H309.47v46.84l-3.22-4c-4.54-5.56-12.59-8.63-22.68-8.63-18.59,0-32.35,10.39-37.77,27.08-.29,1-.58,2-.88,3.07-.43,1.61-.73,3.22-1,5a50.7,50.7,0,0,0-.59,8.34,56.36,56.36,0,0,0,.59,8.78,24.22,24.22,0,0,0,.88,4.68v.15a14,14,0,0,0,.88,3.37c4.83,15.8,17,24.88,35.56,26.05C292.05,185,302.3,181,308.45,174l2.49-2.92,1.75,14.46h25.47V161.26a50.75,50.75,0,0,1-3.8-19.9A48.46,48.46,0,0,1,338.16,121.6ZM291,162c-11.56,0-19.32-8.34-19.32-20.78s7.9-20.93,19.32-20.93c13.17,0,19.17,11.27,19.17,21.81C310.2,151.75,303.47,162,291,162Z"/><path class="cls-2" d="M424.22,117.64a34.82,34.82,0,0,0-3.22-5c-.14-.3-.44-.44-.58-.73a31.35,31.35,0,0,0-3.08-3.23c-7.9-7.17-19.46-11.12-32.78-11.12-17.57,0-35.13,7.76-42.74,24.59a29.54,29.54,0,0,0-1.9,5.42,42.9,42.9,0,0,0-1.76,11,17.4,17.4,0,0,0-.15,2.79c0,1.75,0,3.36.15,5a45.06,45.06,0,0,0,1.76,9.08,31.07,31.07,0,0,0,1.9,5.12c6.88,15.37,22.69,24.15,44.93,24.15,14.35,0,27.37-4.54,36.89-12.73l-13.47-15.08c-6.29,4.24-13.61,6.29-21.95,6.29-7,0-18.44-3.22-21.08-12.29l-.73-2.34h61.47a76.32,76.32,0,0,0,1-7.76,31.25,31.25,0,0,0,0-5.12,26.16,26.16,0,0,0-1.17-8.35A27.39,27.39,0,0,0,424.22,117.64ZM367,131.4l.3-2.05c1.31-8.78,10.83-12.44,18.73-12s15.81,4.25,16.25,12.15l.15,1.9Z"/><path class="cls-2" d="M639.09,133a11.28,11.28,0,0,1-.59-2.34,6.89,6.89,0,0,1-.43-2.49,32.51,32.51,0,0,1-.3-4c0-8.34,3.08-15.37,8.78-20.34V63.34h-26V185.19h26V144.14a22.74,22.74,0,0,1-6.73-9.23A10.31,10.31,0,0,1,639.09,133Z"/><path class="cls-2" d="M614.65,63.34H588.59V65a18.17,18.17,0,0,1,0,21.08v99.16h28.25V63.34h-2.19Z"/><path class="cls-2" d="M584.93,66.27c-3.22-3.66-8.19-5.27-12.88-5.27-7.9,0-16.53,4.54-16.53,14.49s8.63,14.34,16.53,14.34c4.69,0,9.66-1.61,12.88-5.12a11.67,11.67,0,0,0,1.91-2.78,14.93,14.93,0,0,0,0-12.88A9.29,9.29,0,0,0,584.93,66.27Z"/><path class="cls-2" d="M715.93,151.75a20.57,20.57,0,0,0-3.22-8.05,7.27,7.27,0,0,0-.88-1.17,16.41,16.41,0,0,0-2.63-2.93c-.29-.29-.59-.59-.88-.59-.44-.44-.73-.88-1.17-1a3.5,3.5,0,0,0-1.32-.88,11.12,11.12,0,0,0-2.63-1.46c-.88-.44-1.76-.88-2.78-1.32a24.58,24.58,0,0,0-4.69-1.46,2,2,0,0,0-1-.3,18.66,18.66,0,0,0-4.1-.88,38.73,38.73,0,0,0-4.24-.58,67.5,67.5,0,0,0-7.91-.59c-7.9-.29-8.34-5-8.34-6,0-2.78,1.76-6,9.51-6h.74c6.58,0,15.36,1.9,20.49,4.68l11.71-16.53c-8.35-5.71-20.49-9.08-32.94-9.08-5.85,0-20,.73-29.42,8.2a14.22,14.22,0,0,0-1.75,1.31,27.42,27.42,0,0,0-1.91,2.05,22.83,22.83,0,0,0-5.12,15.08,22.41,22.41,0,0,0,5.12,14.93,13.26,13.26,0,0,0,1.91,2.05,16.11,16.11,0,0,0,1.75,1.46c8.64,6.88,21.52,7.91,26.79,8.05a23.49,23.49,0,0,1,5.71,1c2.78.87,5.12,2.49,5.12,5.56,0,2.78-1.76,6.15-10.54,6.15-6-.44-15.22,1.15-27.08-5.29v24.22c8.35,2.78,18.15,2.58,27.67,2.58,9.07,0,38.64-1.9,38.64-27.66A23.07,23.07,0,0,0,715.93,151.75Z"/><path class="cls-3" d="M67.31,178.48,53.25,193.6,5.82,147.85v-4.41L53.25,97.9,67.1,112.8,32.26,145.74Z"/><path class="cls-3" d="M822.11,145.74l-35-33.78L801.13,97.9l47.21,45.54v4.41L801.13,193.6l-14.27-14.06Z"/><path class="cls-3" d="M788.93,95,750.36,196.53l-21,0L767.73,95Z"/></g></g></svg>