<svg xmlns="http://www.w3.org/2000/svg" xmlns:xlink="http://www.w3.org/1999/xlink" width="1920" height="1348" viewBox="0 0 1920 1348"><defs><clipPath id="a"><rect width="1920" height="1348" transform="translate(2435 -2011)" fill="#fff" stroke="#707070" stroke-width="1"/></clipPath><clipPath id="b"><rect width="1806" height="1273" rx="383" transform="matrix(0.839, 0.545, -0.545, 0.839, 1231.326, -764.175)" fill="#30348d"/></clipPath><linearGradient id="c" x1="0.5" x2="0.5" y2="1" gradientUnits="objectBoundingBox"><stop offset="0" stop-color="#30348d"/><stop offset="1" stop-color="#4046bf"/></linearGradient></defs><g transform="translate(-2435 2011)" clip-path="url(#a)"><g transform="translate(2435 -2011)" fill="#fff" stroke="#707070" stroke-width="1" opacity="0"><rect width="1920" height="1348" stroke="none"/><rect x="0.5" y="0.5" width="1919" height="1347" fill="none"/></g><g transform="translate(2435 -2012)" clip-path="url(#b)"><path d="M383,0H1423c211.525,0,383,171.475,383,383V890c0,211.525-171.475,383-383,383H383C171.475,1273,0,1101.525,0,890V383C0,171.475,171.475,0,383,0Z" transform="matrix(0.839, 0.545, -0.545, 0.839, 1231.326, -764.175)" fill="url(#c)"/><circle cx="200" cy="200" r="200" transform="translate(732 184)" fill="#346aee"/><circle cx="154" cy="154" r="154" transform="translate(1897 742)" fill="#346aee"/><circle cx="64.5" cy="64.5" r="64.5" transform="translate(1490 895.5)" fill="#ea9d39"/><circle cx="258.5" cy="258.5" r="258.5" transform="translate(1730 125)" fill="#8443d5"/></g></g></svg>